<?xml version="1.0" encoding="UTF-8"?>
<svg xmlns="http://www.w3.org/2000/svg" xmlns:xlink="http://www.w3.org/1999/xlink" width="356.83pt" height="97.66pt" viewBox="0 0 356.83 97.66" version="1.1">
<defs>
<clipPath id="clip1">
  <path d="M 0.0078125 0 L 97.414063 0 L 97.414063 97.660156 L 0.0078125 97.660156 Z M 0.0078125 0 "/>
</clipPath>
<filter id="alpha" filterUnits="objectBoundingBox" x="0%" y="0%" width="100%" height="100%">
  <feColorMatrix type="matrix" in="SourceGraphic" values="0 0 0 0 1 0 0 0 0 1 0 0 0 0 1 0 0 0 1 0"/>
</filter>
<mask id="mask0">
  <g filter="url(#alpha)">
<rect x="0" y="0" width="356.83" height="97.66" style="fill:rgb(0%,0%,0%);fill-opacity:0.5;stroke:none;"/>
  </g>
</mask>
<clipPath id="clip3">
  <path d="M 0.0078125 0 L 97.414063 0 L 97.414063 97.660156 L 0.0078125 97.660156 Z M 0.0078125 0 "/>
</clipPath>
<clipPath id="clip2">
  <rect width="98" height="98"/>
</clipPath>
<g id="surface4" clip-path="url(#clip2)">
<g clip-path="url(#clip3)" clip-rule="nonzero">
<path style=" stroke:none;fill-rule:nonzero;fill:rgb(98.799133%,79.598999%,33.299255%);fill-opacity:1;" d="M 97.414063 48.832031 C 97.414063 75.800781 75.609375 97.660156 48.710938 97.660156 C 21.8125 97.660156 0.0078125 75.800781 0.0078125 48.832031 C 0.0078125 21.863281 21.8125 0 48.710938 0 C 75.609375 0 97.414063 21.863281 97.414063 48.832031 "/>
</g>
</g>
<clipPath id="clip4">
  <path d="M 48 0 L 98 0 L 98 97.660156 L 48 97.660156 Z M 48 0 "/>
</clipPath>
<clipPath id="clip5">
  <path d="M 23 2 L 50 2 L 50 97.660156 L 23 97.660156 Z M 23 2 "/>
</clipPath>
<clipPath id="clip6">
  <path d="M 25 79 L 58 79 L 58 97.660156 L 25 97.660156 Z M 25 79 "/>
</clipPath>
<clipPath id="clip7">
  <path d="M 4 0 L 44 0 L 44 97.660156 L 4 97.660156 Z M 4 0 "/>
</clipPath>
<clipPath id="clip8">
  <path d="M 80 11 L 356.828125 11 L 356.828125 15 L 80 15 Z M 80 11 "/>
</clipPath>
<clipPath id="clip9">
  <path d="M 80 33 L 356.828125 33 L 356.828125 36 L 80 36 Z M 80 33 "/>
</clipPath>
<clipPath id="clip10">
  <path d="M 349 86 L 356.828125 86 L 356.828125 95 L 349 95 Z M 349 86 "/>
</clipPath>
</defs>
<g id="surface1">
<g clip-path="url(#clip1)" clip-rule="nonzero">
<use xlink:href="#surface4" transform="matrix(1,0,0,1,0,-0.000000000000000264)" mask="url(#mask0)"/>
</g>
<path style=" stroke:none;fill-rule:nonzero;fill:rgb(79.598999%,80.799866%,87.5%);fill-opacity:1;" d="M 0.0625 48.792969 C 0.0625 25.277344 16.640625 5.644531 38.722656 1 L 39.242188 0.925781 L 39.242188 7.875 L 38.769531 9.535156 L 37.246094 10.785156 L 36.042969 10.785156 L 35.089844 12.917969 L 34.019531 13.757813 L 34.019531 14.957031 C 34.019531 14.957031 32.800781 16.640625 32.683594 17.121094 C 32.5625 17.597656 31.992188 17.53125 31.738281 18.464844 C 31.480469 19.398438 30.761719 20.359375 30.402344 20.722656 C 30.042969 21.082031 29.800781 21.082031 29.203125 21.558594 C 28.601563 22.042969 27.640625 22.28125 27.039063 22.640625 C 26.441406 23 25.839844 23.121094 24.878906 23.480469 C 23.917969 23.839844 22.480469 23 22 23.480469 C 21.519531 23.960938 20.054688 23.636719 19.78125 24.167969 C 19.503906 24.695313 19.359375 24.984375 19.167969 25.367188 C 18.980469 25.746094 18.15625 25.726563 18.15625 25.726563 L 18.15625 27.496094 C 18.15625 27.496094 17.824219 28.242188 17.660156 28.636719 C 17.492188 29.027344 17.066406 30.054688 16.917969 30.449219 C 16.765625 30.839844 15.035156 31.164063 14.4375 31.285156 C 13.835938 31.402344 13.117188 31.042969 12.636719 31.285156 C 12.15625 31.523438 12.277344 30.132813 11.554688 31.308594 C 10.835938 32.484375 10.234375 32.847656 9.996094 33.804688 C 9.753906 34.765625 10.355469 36.445313 9.996094 37.046875 C 9.636719 37.644531 9.636719 38.488281 9.394531 38.96875 C 9.152344 39.445313 8.742188 39.566406 8.648438 40.046875 C 8.554688 40.527344 8.671875 40.648438 7.953125 41.128906 C 7.234375 41.609375 6.753906 41.488281 6.394531 42.207031 C 6.03125 42.929688 6.875 42.929688 6.394531 43.648438 C 5.914063 44.367188 6.03125 43.851563 5.675781 45.011719 C 5.3125 46.167969 5.3125 45.929688 4.710938 46.769531 C 4.113281 47.609375 3.875 47.589844 3.875 48.210938 C 3.875 48.832031 3.753906 48.917969 3.875 49.945313 C 3.992188 50.972656 3.820313 54.8125 3.820313 54.8125 L 4.472656 55.410156 L 5.3125 56.253906 C 5.3125 56.253906 5.433594 55.894531 5.792969 56.253906 C 6.152344 56.613281 6.875 56.851563 6.875 56.851563 C 6.875 56.851563 7.472656 57.453125 7.953125 56.851563 C 8.433594 56.253906 9.273438 55.410156 9.273438 55.410156 C 9.273438 55.410156 9.753906 54.691406 10.476563 54.691406 C 11.195313 54.691406 11.433594 55.054688 11.433594 55.410156 C 11.433594 55.773438 11.554688 56.546875 11.433594 57.121094 C 11.316406 57.691406 10.957031 59.613281 10.835938 60.09375 C 10.714844 60.574219 9.875 61.65625 9.875 61.65625 C 9.875 61.65625 9.515625 63.09375 9.515625 63.574219 C 9.515625 64.054688 9.636719 64.894531 9.152344 65.496094 C 8.675781 66.097656 8.191406 65.976563 7.953125 66.578125 C 7.714844 67.179688 7.355469 67.058594 7.113281 67.65625 C 6.875 68.257813 6.753906 68.617188 6.632813 69.21875 C 6.515625 69.816406 5.488281 71.347656 5.488281 71.347656 C -0.457031 60.160156 0.0078125 48.832031 0.0078125 48.832031 L 48.710938 48.832031 "/>
<g clip-path="url(#clip4)" clip-rule="nonzero">
<path style=" stroke:none;fill-rule:nonzero;fill:rgb(6.298828%,27.49939%,48.199463%);fill-opacity:1;" d="M 48.710938 97.660156 C 75.609375 97.660156 97.414063 75.800781 97.414063 48.832031 C 97.414063 21.863281 75.609375 0.00390625 48.710938 0.00390625 "/>
</g>
<path style="fill:none;stroke-width:5.97;stroke-linecap:butt;stroke-linejoin:miter;stroke:rgb(6.298828%,27.49939%,48.199463%);stroke-opacity:1;stroke-miterlimit:10;" d="M 321.992188 947.771875 C 321.992188 947.771875 374.414063 848.7875 487.109375 859.178125 " transform="matrix(0.1,0,0,-0.1,0,97.66)"/>
<g clip-path="url(#clip5)" clip-rule="nonzero">
<path style="fill:none;stroke-width:5.97;stroke-linecap:butt;stroke-linejoin:miter;stroke:rgb(6.298828%,27.49939%,48.199463%);stroke-opacity:1;stroke-miterlimit:10;" d="M 413.476563 868.748437 C 413.476563 868.748437 197.226563 551.795312 413.476563 85.584375 " transform="matrix(0.1,0,0,-0.1,0,97.66)"/>
</g>
<g clip-path="url(#clip6)" clip-rule="nonzero">
<path style="fill:none;stroke-width:5.97;stroke-linecap:butt;stroke-linejoin:miter;stroke:rgb(6.298828%,27.49939%,48.199463%);stroke-opacity:1;stroke-miterlimit:10;" d="M 340.195313 22.615625 C 340.195313 22.615625 374.414063 99.373437 487.109375 95.935937 " transform="matrix(0.1,0,0,-0.1,0,97.66)"/>
</g>
<g clip-path="url(#clip7)" clip-rule="nonzero">
<path style="fill:none;stroke-width:5.97;stroke-linecap:butt;stroke-linejoin:miter;stroke:rgb(6.298828%,27.49939%,48.199463%);stroke-opacity:1;stroke-miterlimit:10;" d="M 340.195313 921.990625 C 340.195313 921.990625 -134.140625 510.428125 350.898438 39.451562 " transform="matrix(0.1,0,0,-0.1,0,97.66)"/>
</g>
<path style="fill:none;stroke-width:5.97;stroke-linecap:butt;stroke-linejoin:miter;stroke:rgb(6.298828%,27.49939%,48.199463%);stroke-opacity:1;stroke-miterlimit:10;" d="M 79.53125 755.584375 C 79.53125 755.584375 168.28125 672.264062 487.109375 684.25625 " transform="matrix(0.1,0,0,-0.1,0,97.66)"/>
<path style="fill:none;stroke-width:5.97;stroke-linecap:butt;stroke-linejoin:miter;stroke:rgb(6.298828%,27.49939%,48.199463%);stroke-opacity:1;stroke-miterlimit:10;" d="M 86.484375 210.623437 C 86.484375 210.623437 108.28125 276.326562 487.109375 294.334375 " transform="matrix(0.1,0,0,-0.1,0,97.66)"/>
<path style=" stroke:none;fill-rule:nonzero;fill:rgb(37.599182%,45.098877%,61.999512%);fill-opacity:1;" d="M 17.660156 28.636719 L 19.117188 28.636719 L 20.078125 29.351563 L 20.078125 30.566406 C 20.078125 30.566406 20.679688 30.082031 21.160156 30.566406 C 21.640625 31.042969 22.71875 31.644531 22.71875 31.644531 L 23.078125 31.644531 C 23.078125 31.644531 23.941406 32.363281 24.167969 32.605469 C 24.398438 32.84375 24.878906 32.605469 24.878906 32.605469 C 24.878906 32.605469 23.917969 32.726563 24.878906 33.207031 L 25.839844 33.683594 L 26.800781 34.527344 L 27.28125 35.125 C 27.28125 35.125 27.941406 36.429688 28.332031 36.136719 C 28.722656 35.84375 29.199219 36.429688 29.5625 36.136719 C 29.921875 35.84375 30.042969 36.3125 31 36.136719 C 31.960938 35.964844 32.683594 36.3125 33.285156 36.136719 C 33.882813 35.964844 34.734375 36.191406 35.089844 36.136719 C 35.445313 36.085938 36.441406 36.191406 36.542969 36.136719 C 36.644531 36.085938 37.367188 35.636719 38.085938 36.222656 C 38.804688 36.804688 38.714844 36.203125 39.242188 36.925781 C 39.765625 37.644531 38.683594 36.6875 39.765625 37.644531 C 40.847656 38.605469 41.042969 38.605469 41.367188 39.085938 C 41.683594 39.566406 42.046875 39.328125 42.046875 40.289063 C 42.046875 41.246094 41.566406 41.609375 42.046875 41.96875 L 42.527344 42.328125 C 42.527344 42.328125 43.484375 44.101563 43.484375 44.296875 L 43.484375 45.832031 L 42.40625 45.832031 C 42.40625 45.832031 41.925781 46.050781 41.925781 46.648438 L 41.925781 47.25 C 41.925781 48.089844 42.046875 47.347656 41.925781 48.089844 C 41.804688 48.832031 41.730469 48.878906 41.347656 49.503906 C 40.964844 50.132813 41.023438 50.765625 40.453125 50.929688 C 39.886719 51.089844 39.4375 51.453125 39.242188 51.8125 C 39.042969 52.171875 39.886719 51.210938 39.042969 52.171875 C 38.203125 53.132813 38.085938 52.859375 37.605469 53.476563 C 37.125 54.089844 36.921875 54.453125 36.542969 54.695313 C 36.164063 54.933594 35.574219 55.171875 35.089844 55.410156 C 34.601563 55.652344 34.003906 54.933594 33.523438 55.410156 C 33.042969 55.894531 32.710938 55.894531 31.734375 56.011719 C 30.761719 56.132813 30.042969 56.613281 29.5625 56.734375 C 29.082031 56.851563 28.242188 56.132813 27.882813 56.734375 C 27.519531 57.332031 27.039063 57.332031 26.800781 57.691406 C 26.558594 58.054688 25.359375 58.292969 25.359375 58.292969 L 24.359375 58.292969 L 23.320313 60.214844 L 22.476563 60.214844 L 21.53125 61.175781 C 21.53125 61.175781 21.660156 61.535156 21.53125 62.015625 C 21.398438 62.496094 22.023438 62.734375 21.53125 63.09375 C 21.039063 63.453125 20.679688 63.574219 20.558594 63.9375 C 20.441406 64.292969 20.441406 64.417969 20.320313 64.777344 C 20.199219 65.136719 20.199219 65.378906 20.199219 65.855469 C 20.199219 66.335938 20.320313 66.457031 20.199219 67.058594 C 20.078125 67.65625 20.199219 68.378906 20.078125 68.855469 C 19.957031 69.335938 19.984375 69.535156 19.957031 70.539063 C 19.929688 71.539063 20.023438 70.621094 19.929688 71.539063 L 19.839844 72.457031 L 19.40625 73.328125 L 16.71875 73.328125 L 16 72.585938 L 15.035156 71.347656 L 15.035156 70.175781 L 13.25 68.738281 C 13.25 68.738281 12.753906 68.074219 12.277344 68.226563 C 11.796875 68.378906 10.355469 68.226563 10.355469 68.226563 L 6.898438 68.226563 L 7.953125 66.578125 L 9.15625 65.496094 L 9.5 64.582031 L 9.582031 63.007813 L 9.875 61.65625 L 10.835938 60.09375 L 11.011719 59.265625 L 11.292969 57.832031 L 11.484375 56.363281 L 11.433594 55.410156 L 10.476563 54.695313 L 9.273438 55.410156 L 8.648438 56.0625 L 7.953125 56.851563 L 6.875 56.851563 L 5.3125 56.253906 L 4.894531 55.832031 L 3.820313 54.8125 L 3.867188 53.476563 L 3.820313 52.171875 L 3.820313 50.984375 L 3.875 49.945313 L 3.875 48.210938 L 4.226563 47.382813 C 4.226563 47.382813 4.839844 46.59375 5.015625 46.363281 C 5.195313 46.136719 5.671875 45.011719 5.671875 45.011719 L 5.917969 44.296875 L 6.394531 43.648438 L 6.375 42.816406 L 6.394531 42.207031 L 7.234375 41.492188 L 7.953125 41.128906 L 8.648438 40.046875 L 8.863281 39.621094 C 8.863281 39.621094 9.1875 39.667969 9.394531 38.96875 C 9.605469 38.265625 9.746094 37.664063 9.746094 37.664063 L 9.996094 37.046875 L 10.042969 35.585938 L 9.941406 34.527344 L 9.996094 33.804688 L 10.609375 32.617188 L 11.292969 31.710938 L 11.785156 30.984375 L 12.636719 31.285156 L 13.925781 31.296875 L 15.316406 31.101563 L 16.917969 30.449219 L 17.355469 29.351563 "/>
<g clip-path="url(#clip8)" clip-rule="nonzero">
<path style="fill:none;stroke-width:24;stroke-linecap:butt;stroke-linejoin:miter;stroke:rgb(6.298828%,27.49939%,48.199463%);stroke-opacity:1;stroke-miterlimit:10;" d="M 818.125 846.404687 L 3550.429688 846.404687 " transform="matrix(0.1,0,0,-0.1,0,97.66)"/>
</g>
<g clip-path="url(#clip9)" clip-rule="nonzero">
<path style="fill:none;stroke-width:24;stroke-linecap:butt;stroke-linejoin:miter;stroke:rgb(6.298828%,27.49939%,48.199463%);stroke-opacity:1;stroke-miterlimit:10;" d="M 818.125 630.271875 L 3550.429688 630.271875 " transform="matrix(0.1,0,0,-0.1,0,97.66)"/>
</g>
<path style="fill:none;stroke-width:24;stroke-linecap:butt;stroke-linejoin:miter;stroke:rgb(6.298828%,27.49939%,48.199463%);stroke-opacity:1;stroke-miterlimit:10;" d="M 665.078125 39.451562 L 2848.59375 39.451562 " transform="matrix(0.1,0,0,-0.1,0,97.66)"/>
<path style=" stroke:none;fill-rule:nonzero;fill:rgb(6.298828%,27.49939%,48.199463%);fill-opacity:1;" d="M 103.105469 19.089844 L 105.78125 19.089844 L 105.78125 26 C 105.78125 26.773438 105.886719 27.335938 106.089844 27.691406 C 106.40625 28.320313 107.101563 28.636719 108.171875 28.636719 C 109.234375 28.636719 109.925781 28.320313 110.242188 27.691406 C 110.449219 27.335938 110.550781 26.773438 110.550781 26 L 110.550781 19.089844 L 113.230469 19.089844 L 113.230469 26.003906 C 113.230469 27.199219 113.019531 28.128906 112.605469 28.796875 C 111.832031 30.019531 110.351563 30.628906 108.171875 30.628906 C 105.988281 30.628906 104.507813 30.019531 103.726563 28.796875 C 103.3125 28.128906 103.105469 27.199219 103.105469 26.003906 "/>
<path style=" stroke:none;fill-rule:nonzero;fill:rgb(6.298828%,27.49939%,48.199463%);fill-opacity:1;" d="M 115.71875 19.089844 L 118.480469 19.089844 L 123.492188 26.933594 L 123.492188 19.089844 L 125.945313 19.089844 L 125.945313 30.339844 L 123.3125 30.339844 L 118.175781 22.359375 L 118.175781 30.339844 L 115.71875 30.339844 "/>
<path style=" stroke:none;fill-rule:nonzero;fill:rgb(6.298828%,27.49939%,48.199463%);fill-opacity:1;" d="M 128.207031 30.339844 L 130.828125 30.339844 L 130.828125 19.089844 L 128.207031 19.089844 Z M 128.207031 30.339844 "/>
<path style=" stroke:none;fill-rule:nonzero;fill:rgb(6.298828%,27.49939%,48.199463%);fill-opacity:1;" d="M 140.671875 19.089844 L 143.410156 19.089844 L 139.109375 30.339844 L 136.621094 30.339844 L 132.355469 19.089844 L 135.167969 19.089844 L 137.90625 27.628906 "/>
<path style=" stroke:none;fill-rule:nonzero;fill:rgb(6.298828%,27.49939%,48.199463%);fill-opacity:1;" d="M 154.3125 21.082031 L 147.632813 21.082031 L 147.632813 23.472656 L 153.761719 23.472656 L 153.761719 25.425781 L 147.632813 25.425781 L 147.632813 28.316406 L 154.617188 28.316406 L 154.617188 30.339844 L 145.058594 30.339844 L 145.058594 19.089844 L 154.3125 19.089844 "/>
<path style=" stroke:none;fill-rule:nonzero;fill:rgb(6.298828%,27.49939%,48.199463%);fill-opacity:1;" d="M 159.308594 21.046875 L 159.308594 24.066406 L 162.144531 24.066406 C 162.707031 24.066406 163.132813 24.003906 163.414063 23.882813 C 163.910156 23.671875 164.160156 23.25 164.160156 22.617188 C 164.160156 21.933594 163.917969 21.476563 163.4375 21.242188 C 163.164063 21.109375 162.761719 21.046875 162.21875 21.046875 Z M 164.757813 19.378906 C 165.222656 19.558594 165.613281 19.820313 165.9375 20.167969 C 166.203125 20.453125 166.414063 20.769531 166.574219 21.113281 C 166.726563 21.460938 166.804688 21.851563 166.804688 22.296875 C 166.804688 22.832031 166.65625 23.355469 166.351563 23.871094 C 166.050781 24.386719 165.550781 24.753906 164.851563 24.96875 C 165.4375 25.175781 165.847656 25.472656 166.089844 25.855469 C 166.332031 26.238281 166.453125 26.828125 166.453125 27.613281 L 166.453125 28.371094 C 166.453125 28.882813 166.476563 29.230469 166.523438 29.417969 C 166.59375 29.707031 166.753906 29.917969 167.011719 30.054688 L 167.011719 30.339844 L 164.101563 30.339844 C 164.019531 30.089844 163.964844 29.886719 163.929688 29.734375 C 163.859375 29.421875 163.824219 29.097656 163.820313 28.765625 L 163.800781 27.722656 C 163.789063 27.003906 163.652344 26.527344 163.386719 26.289063 C 163.117188 26.046875 162.617188 25.925781 161.882813 25.925781 L 159.308594 25.925781 L 159.308594 30.339844 L 156.730469 30.339844 L 156.730469 19.089844 L 162.765625 19.089844 C 163.628906 19.105469 164.292969 19.203125 164.757813 19.378906 "/>
<path style=" stroke:none;fill-rule:nonzero;fill:rgb(6.298828%,27.49939%,48.199463%);fill-opacity:1;" d="M 171.230469 26.867188 C 171.3125 27.378906 171.472656 27.765625 171.710938 28.019531 C 172.148438 28.480469 172.894531 28.714844 173.957031 28.714844 C 174.589844 28.714844 175.109375 28.652344 175.503906 28.53125 C 176.253906 28.296875 176.632813 27.863281 176.632813 27.226563 C 176.632813 26.855469 176.445313 26.566406 176.078125 26.363281 C 175.710938 26.164063 175.125 25.988281 174.324219 25.835938 L 172.960938 25.570313 C 171.617188 25.304688 170.695313 25.015625 170.195313 24.707031 C 169.34375 24.1875 168.917969 23.378906 168.917969 22.273438 C 168.917969 21.265625 169.335938 20.429688 170.167969 19.761719 C 171 19.097656 172.21875 18.761719 173.832031 18.761719 C 175.175781 18.761719 176.324219 19.078125 177.273438 19.703125 C 178.226563 20.332031 178.722656 21.246094 178.769531 22.441406 L 176.234375 22.441406 C 176.191406 21.765625 175.851563 21.285156 175.21875 21 C 174.796875 20.8125 174.273438 20.714844 173.648438 20.714844 C 172.949219 20.714844 172.398438 20.839844 171.980469 21.082031 C 171.566406 21.328125 171.359375 21.667969 171.359375 22.105469 C 171.359375 22.507813 171.5625 22.808594 171.972656 23.003906 C 172.234375 23.136719 172.796875 23.292969 173.648438 23.472656 L 175.863281 23.9375 C 176.835938 24.140625 177.558594 24.410156 178.042969 24.753906 C 178.796875 25.28125 179.171875 26.046875 179.171875 27.050781 C 179.171875 28.078125 178.726563 28.929688 177.835938 29.609375 C 176.945313 30.289063 175.6875 30.628906 174.058594 30.628906 C 172.398438 30.628906 171.09375 30.292969 170.140625 29.625 C 169.1875 28.957031 168.714844 28.035156 168.714844 26.867188 "/>
<path style=" stroke:none;fill-rule:nonzero;fill:rgb(6.298828%,27.49939%,48.199463%);fill-opacity:1;" d="M 180.804688 30.339844 L 183.425781 30.339844 L 183.425781 19.089844 L 180.804688 19.089844 Z M 180.804688 30.339844 "/>
<path style=" stroke:none;fill-rule:nonzero;fill:rgb(6.298828%,27.49939%,48.199463%);fill-opacity:1;" d="M 188.449219 21.046875 L 188.449219 28.386719 L 190.882813 28.386719 C 192.128906 28.386719 192.996094 27.839844 193.488281 26.746094 C 193.757813 26.144531 193.894531 25.429688 193.894531 24.601563 C 193.894531 23.457031 193.691406 22.578125 193.289063 21.964844 C 192.886719 21.351563 192.082031 21.046875 190.882813 21.046875 Z M 193.28125 19.335938 C 194.167969 19.59375 194.882813 20.070313 195.433594 20.761719 C 195.871094 21.324219 196.171875 21.925781 196.328125 22.578125 C 196.492188 23.230469 196.570313 23.851563 196.570313 24.441406 C 196.570313 25.9375 196.234375 27.203125 195.5625 28.242188 C 194.644531 29.640625 193.238281 30.339844 191.328125 30.339844 L 185.890625 30.339844 L 185.890625 19.089844 L 191.328125 19.089844 C 192.113281 19.101563 192.761719 19.183594 193.28125 19.335938 "/>
<path style=" stroke:none;fill-rule:nonzero;fill:rgb(6.298828%,27.49939%,48.199463%);fill-opacity:1;" d="M 201.980469 26.089844 L 205.210938 26.089844 L 203.621094 21.664063 Z M 202.15625 19.089844 L 205.140625 19.089844 L 209.601563 30.339844 L 206.742188 30.339844 L 205.910156 28.027344 L 201.265625 28.027344 L 200.410156 30.339844 L 197.652344 30.339844 "/>
<path style=" stroke:none;fill-rule:nonzero;fill:rgb(6.298828%,27.49939%,48.199463%);fill-opacity:1;" d="M 213.765625 21.046875 L 213.765625 28.386719 L 216.199219 28.386719 C 217.445313 28.386719 218.3125 27.839844 218.808594 26.746094 C 219.074219 26.144531 219.207031 25.429688 219.207031 24.601563 C 219.207031 23.457031 219.007813 22.578125 218.605469 21.964844 C 218.203125 21.351563 217.398438 21.046875 216.199219 21.046875 Z M 218.597656 19.335938 C 219.484375 19.59375 220.199219 20.070313 220.746094 20.761719 C 221.1875 21.324219 221.488281 21.925781 221.648438 22.578125 C 221.808594 23.230469 221.886719 23.851563 221.886719 24.441406 C 221.886719 25.9375 221.550781 27.203125 220.875 28.242188 C 219.964844 29.640625 218.550781 30.339844 216.644531 30.339844 L 211.207031 30.339844 L 211.207031 19.089844 L 216.644531 19.089844 C 217.425781 19.101563 218.078125 19.183594 218.597656 19.335938 "/>
<path style=" stroke:none;fill-rule:nonzero;fill:rgb(6.298828%,27.49939%,48.199463%);fill-opacity:1;" d="M 235.191406 21.417969 C 234.855469 21.167969 234.390625 21.046875 233.789063 21.046875 L 231.414063 21.046875 L 231.414063 24.355469 L 233.789063 24.355469 C 234.390625 24.355469 234.855469 24.222656 235.191406 23.953125 C 235.523438 23.683594 235.691406 23.253906 235.691406 22.667969 C 235.691406 22.085938 235.523438 21.667969 235.191406 21.417969 M 237.203125 25.46875 C 236.464844 26.019531 235.410156 26.292969 234.039063 26.292969 L 231.414063 26.292969 L 231.414063 30.339844 L 228.792969 30.339844 L 228.792969 19.089844 L 234.210938 19.089844 C 235.460938 19.089844 236.453125 19.378906 237.195313 19.960938 C 237.9375 20.542969 238.3125 21.4375 238.3125 22.65625 C 238.3125 23.980469 237.941406 24.921875 237.203125 25.46875 "/>
<path style=" stroke:none;fill-rule:nonzero;fill:rgb(6.298828%,27.49939%,48.199463%);fill-opacity:1;" d="M 248.492188 27.628906 C 249.105469 26.941406 249.410156 25.964844 249.410156 24.699219 C 249.410156 23.4375 249.105469 22.460938 248.492188 21.773438 C 247.878906 21.082031 247.050781 20.738281 246.007813 20.738281 C 244.960938 20.738281 244.128906 21.082031 243.507813 21.769531 C 242.882813 22.457031 242.574219 23.433594 242.574219 24.699219 C 242.574219 25.964844 242.882813 26.941406 243.507813 27.628906 C 244.128906 28.316406 244.960938 28.660156 246.007813 28.660156 C 247.050781 28.660156 247.878906 28.316406 248.492188 27.628906 M 250.140625 29.339844 C 249.1875 30.214844 247.808594 30.652344 246.007813 30.652344 C 244.203125 30.652344 242.824219 30.214844 241.871094 29.339844 C 240.59375 28.265625 239.953125 26.71875 239.953125 24.699219 C 239.953125 22.640625 240.59375 21.09375 241.871094 20.0625 C 242.824219 19.1875 244.203125 18.746094 246.007813 18.746094 C 247.808594 18.746094 249.1875 19.1875 250.140625 20.0625 C 251.410156 21.09375 252.046875 22.640625 252.046875 24.699219 C 252.046875 26.71875 251.410156 28.265625 250.140625 29.339844 "/>
<path style=" stroke:none;fill-rule:nonzero;fill:rgb(6.298828%,27.49939%,48.199463%);fill-opacity:1;" d="M 254.058594 19.089844 L 256.695313 19.089844 L 256.695313 28.316406 L 262.996094 28.316406 L 262.996094 30.339844 L 254.058594 30.339844 "/>
<path style=" stroke:none;fill-rule:nonzero;fill:rgb(6.298828%,27.49939%,48.199463%);fill-opacity:1;" d="M 264.550781 30.339844 L 267.171875 30.339844 L 267.171875 19.089844 L 264.550781 19.089844 Z M 264.550781 30.339844 "/>
<path style=" stroke:none;fill-rule:nonzero;fill:rgb(6.298828%,27.49939%,48.199463%);fill-opacity:1;" d="M 278.800781 19.089844 L 278.800781 21.082031 L 275.027344 21.082031 L 275.027344 30.339844 L 272.371094 30.339844 L 272.371094 21.082031 L 268.582031 21.082031 L 268.582031 19.089844 "/>
<path style=" stroke:none;fill-rule:nonzero;fill:rgb(6.298828%,27.49939%,48.199463%);fill-opacity:1;" d="M 288.027344 15.910156 L 285.425781 18.191406 L 283.664063 18.191406 L 285.304688 15.910156 Z M 289.671875 21.082031 L 282.996094 21.082031 L 282.996094 23.472656 L 289.121094 23.472656 L 289.121094 25.425781 L 282.996094 25.425781 L 282.996094 28.316406 L 289.980469 28.316406 L 289.980469 30.339844 L 280.421875 30.339844 L 280.421875 19.089844 L 289.671875 19.089844 "/>
<path style=" stroke:none;fill-rule:nonzero;fill:rgb(6.298828%,27.49939%,48.199463%);fill-opacity:1;" d="M 293.238281 20.265625 C 294.253906 19.339844 295.546875 18.878906 297.117188 18.878906 C 299.214844 18.878906 300.75 19.5 301.722656 20.742188 C 302.257813 21.4375 302.546875 22.136719 302.585938 22.835938 L 299.949219 22.835938 C 299.78125 22.300781 299.566406 21.890625 299.304688 21.617188 C 298.835938 21.128906 298.136719 20.882813 297.214844 20.882813 C 296.277344 20.882813 295.535156 21.230469 294.992188 21.917969 C 294.449219 22.609375 294.179688 23.582031 294.179688 24.84375 C 294.179688 26.105469 294.46875 27.050781 295.039063 27.679688 C 295.609375 28.308594 296.339844 28.621094 297.21875 28.621094 C 298.125 28.621094 298.8125 28.351563 299.289063 27.8125 C 299.550781 27.523438 299.769531 27.085938 299.941406 26.507813 L 302.558594 26.507813 C 302.335938 27.734375 301.757813 28.730469 300.828125 29.5 C 299.898438 30.265625 298.710938 30.652344 297.257813 30.652344 C 295.464844 30.652344 294.054688 30.132813 293.027344 29.09375 C 291.996094 28.050781 291.484375 26.621094 291.484375 24.808594 C 291.484375 22.84375 292.070313 21.332031 293.238281 20.265625 "/>
<path style=" stroke:none;fill-rule:nonzero;fill:rgb(6.298828%,27.49939%,48.199463%);fill-opacity:1;" d="M 304.648438 19.089844 L 307.410156 19.089844 L 312.417969 26.933594 L 312.417969 19.089844 L 314.875 19.089844 L 314.875 30.339844 L 312.242188 30.339844 L 307.105469 22.359375 L 307.105469 30.339844 L 304.648438 30.339844 "/>
<path style=" stroke:none;fill-rule:nonzero;fill:rgb(6.298828%,27.49939%,48.199463%);fill-opacity:1;" d="M 317.136719 30.339844 L 319.753906 30.339844 L 319.753906 19.089844 L 317.136719 19.089844 Z M 317.136719 30.339844 "/>
<path style=" stroke:none;fill-rule:nonzero;fill:rgb(6.298828%,27.49939%,48.199463%);fill-opacity:1;" d="M 323.421875 20.265625 C 324.441406 19.339844 325.734375 18.878906 327.300781 18.878906 C 329.402344 18.878906 330.9375 19.5 331.90625 20.742188 C 332.445313 21.4375 332.730469 22.136719 332.773438 22.835938 L 330.136719 22.835938 C 329.96875 22.300781 329.753906 21.890625 329.488281 21.617188 C 329.019531 21.128906 328.324219 20.882813 327.402344 20.882813 C 326.460938 20.882813 325.722656 21.230469 325.179688 21.917969 C 324.640625 22.609375 324.367188 23.582031 324.367188 24.84375 C 324.367188 26.105469 324.652344 27.050781 325.226563 27.679688 C 325.796875 28.308594 326.523438 28.621094 327.40625 28.621094 C 328.308594 28.621094 328.996094 28.351563 329.472656 27.8125 C 329.734375 27.523438 329.953125 27.085938 330.128906 26.507813 L 332.746094 26.507813 C 332.519531 27.734375 331.945313 28.730469 331.015625 29.5 C 330.085938 30.265625 328.898438 30.652344 327.445313 30.652344 C 325.652344 30.652344 324.238281 30.132813 323.210938 29.09375 C 322.183594 28.050781 321.671875 26.621094 321.671875 24.808594 C 321.671875 22.84375 322.253906 21.332031 323.421875 20.265625 "/>
<path style=" stroke:none;fill-rule:nonzero;fill:rgb(6.298828%,27.49939%,48.199463%);fill-opacity:1;" d="M 338.3125 26.089844 L 341.539063 26.089844 L 339.949219 21.664063 Z M 338.484375 19.089844 L 341.464844 19.089844 L 345.929688 30.339844 L 343.070313 30.339844 L 342.238281 28.027344 L 337.59375 28.027344 L 336.738281 30.339844 L 333.980469 30.339844 "/>
<path style=" stroke:none;fill-rule:nonzero;fill:rgb(6.298828%,27.49939%,48.199463%);fill-opacity:1;" d="M 300.09375 88.03125 L 295.171875 88.03125 L 295.171875 89.800781 L 299.6875 89.800781 L 299.6875 91.246094 L 295.171875 91.246094 L 295.171875 93.386719 L 300.320313 93.386719 L 300.320313 94.882813 L 293.273438 94.882813 L 293.273438 86.554688 L 300.09375 86.554688 "/>
<path style=" stroke:none;fill-rule:nonzero;fill:rgb(6.298828%,27.49939%,48.199463%);fill-opacity:1;" d="M 302.722656 87.425781 C 303.472656 86.738281 304.425781 86.398438 305.578125 86.398438 C 307.128906 86.398438 308.257813 86.855469 308.976563 87.777344 C 309.371094 88.292969 309.582031 88.808594 309.609375 89.332031 L 307.667969 89.332031 C 307.546875 88.929688 307.382813 88.628906 307.191406 88.425781 C 306.847656 88.066406 306.335938 87.882813 305.65625 87.882813 C 304.964844 87.882813 304.414063 88.140625 304.015625 88.648438 C 303.617188 89.160156 303.414063 89.882813 303.414063 90.816406 C 303.414063 91.75 303.628906 92.449219 304.050781 92.914063 C 304.46875 93.382813 305.007813 93.613281 305.65625 93.613281 C 306.324219 93.613281 306.828125 93.414063 307.179688 93.015625 C 307.375 92.800781 307.535156 92.476563 307.660156 92.046875 L 309.59375 92.046875 C 309.425781 92.957031 309 93.695313 308.316406 94.261719 C 307.632813 94.832031 306.757813 95.117188 305.683594 95.117188 C 304.363281 95.117188 303.324219 94.730469 302.5625 93.964844 C 301.808594 93.191406 301.429688 92.132813 301.429688 90.789063 C 301.429688 89.335938 301.859375 88.214844 302.722656 87.425781 "/>
<path style=" stroke:none;fill-rule:nonzero;fill:rgb(6.298828%,27.49939%,48.199463%);fill-opacity:1;" d="M 311.164063 86.554688 L 313.136719 86.554688 L 313.136719 91.671875 C 313.136719 92.242188 313.214844 92.660156 313.363281 92.921875 C 313.597656 93.390625 314.109375 93.625 314.898438 93.625 C 315.679688 93.625 316.191406 93.390625 316.425781 92.921875 C 316.574219 92.660156 316.652344 92.242188 316.652344 91.671875 L 316.652344 86.554688 L 318.628906 86.554688 L 318.628906 91.675781 C 318.628906 92.5625 318.472656 93.25 318.167969 93.742188 C 317.597656 94.648438 316.503906 95.097656 314.898438 95.097656 C 313.289063 95.097656 312.199219 94.648438 311.621094 93.742188 C 311.316406 93.25 311.164063 92.5625 311.164063 91.675781 "/>
<path style=" stroke:none;fill-rule:nonzero;fill:rgb(6.298828%,27.49939%,48.199463%);fill-opacity:1;" d="M 323.023438 91.738281 L 325.40625 91.738281 L 324.230469 88.460938 Z M 323.152344 86.554688 L 325.351563 86.554688 L 328.640625 94.882813 L 326.535156 94.882813 L 325.921875 93.171875 L 322.496094 93.171875 L 321.867188 94.882813 L 319.835938 94.882813 "/>
<path style=" stroke:none;fill-rule:nonzero;fill:rgb(6.298828%,27.49939%,48.199463%);fill-opacity:1;" d="M 331.710938 88.003906 L 331.710938 93.4375 L 333.503906 93.4375 C 334.421875 93.4375 335.0625 93.03125 335.425781 92.222656 C 335.621094 91.777344 335.722656 91.25 335.722656 90.636719 C 335.722656 89.789063 335.574219 89.136719 335.277344 88.683594 C 334.980469 88.230469 334.390625 88.003906 333.503906 88.003906 Z M 335.273438 86.738281 C 335.925781 86.929688 336.453125 87.28125 336.855469 87.792969 C 337.183594 88.207031 337.402344 88.65625 337.519531 89.136719 C 337.636719 89.621094 337.695313 90.078125 337.695313 90.515625 C 337.695313 91.625 337.449219 92.5625 336.953125 93.332031 C 336.277344 94.367188 335.238281 94.886719 333.832031 94.886719 L 329.824219 94.886719 L 329.824219 86.554688 L 333.832031 86.554688 C 334.410156 86.5625 334.890625 86.625 335.273438 86.738281 "/>
<path style=" stroke:none;fill-rule:nonzero;fill:rgb(6.298828%,27.49939%,48.199463%);fill-opacity:1;" d="M 345.097656 92.878906 C 345.550781 92.371094 345.777344 91.648438 345.777344 90.707031 C 345.777344 89.773438 345.550781 89.050781 345.097656 88.542969 C 344.644531 88.03125 344.035156 87.777344 343.269531 87.777344 C 342.496094 87.777344 341.882813 88.03125 341.421875 88.539063 C 340.96875 89.046875 340.738281 89.769531 340.738281 90.707031 C 340.738281 91.648438 340.96875 92.371094 341.421875 92.878906 C 341.882813 93.386719 342.496094 93.640625 343.269531 93.640625 C 344.035156 93.640625 344.644531 93.386719 345.097656 92.878906 M 346.3125 94.144531 C 345.609375 94.792969 344.597656 95.117188 343.269531 95.117188 C 341.9375 95.117188 340.921875 94.792969 340.21875 94.144531 C 339.277344 93.351563 338.808594 92.203125 338.808594 90.707031 C 338.808594 89.183594 339.277344 88.039063 340.21875 87.273438 C 340.921875 86.625 341.9375 86.300781 343.269531 86.300781 C 344.597656 86.300781 345.609375 86.625 346.3125 87.273438 C 347.253906 88.039063 347.722656 89.183594 347.722656 90.707031 C 347.722656 92.203125 347.253906 93.351563 346.3125 94.144531 "/>
<g clip-path="url(#clip10)" clip-rule="nonzero">
<path style=" stroke:none;fill-rule:nonzero;fill:rgb(6.298828%,27.49939%,48.199463%);fill-opacity:1;" d="M 351.144531 88.003906 L 351.144531 90.238281 L 353.238281 90.238281 C 353.652344 90.238281 353.964844 90.195313 354.171875 90.105469 C 354.539063 89.945313 354.722656 89.632813 354.722656 89.164063 C 354.722656 88.660156 354.546875 88.320313 354.1875 88.148438 C 353.988281 88.050781 353.691406 88.003906 353.289063 88.003906 Z M 355.164063 86.773438 C 355.503906 86.902344 355.792969 87.097656 356.03125 87.355469 C 356.230469 87.5625 356.386719 87.796875 356.5 88.054688 C 356.613281 88.308594 356.671875 88.601563 356.671875 88.929688 C 356.671875 89.324219 356.5625 89.714844 356.335938 90.097656 C 356.113281 90.476563 355.746094 90.75 355.234375 90.90625 C 355.664063 91.0625 355.96875 91.28125 356.144531 91.566406 C 356.324219 91.847656 356.414063 92.285156 356.414063 92.867188 L 356.414063 93.425781 C 356.414063 93.808594 356.429688 94.066406 356.464844 94.199219 C 356.515625 94.414063 356.636719 94.574219 356.824219 94.675781 L 356.824219 94.886719 L 354.675781 94.886719 C 354.621094 94.699219 354.578125 94.550781 354.550781 94.4375 C 354.5 94.203125 354.472656 93.964844 354.46875 93.722656 L 354.457031 92.945313 C 354.449219 92.414063 354.347656 92.0625 354.152344 91.882813 C 353.953125 91.707031 353.585938 91.617188 353.042969 91.617188 L 351.144531 91.617188 L 351.144531 94.886719 L 349.246094 94.886719 L 349.246094 86.554688 L 353.695313 86.554688 C 354.332031 86.566406 354.820313 86.640625 355.164063 86.773438 "/>
</g>
<path style=" stroke:none;fill-rule:nonzero;fill:rgb(6.298828%,27.49939%,48.199463%);fill-opacity:1;" d="M 108.660156 68.785156 C 108.863281 70.515625 109.265625 71.808594 109.863281 72.664063 C 110.953125 74.222656 112.828125 75.003906 115.476563 75.003906 C 117.0625 75.003906 118.355469 74.796875 119.34375 74.386719 C 121.222656 73.597656 122.164063 72.136719 122.164063 69.996094 C 122.164063 68.746094 121.703125 67.777344 120.78125 67.09375 C 119.859375 66.425781 118.402344 65.835938 116.402344 65.320313 L 112.988281 64.421875 C 109.632813 63.53125 107.324219 62.5625 106.070313 61.519531 C 103.945313 59.773438 102.882813 57.042969 102.882813 53.324219 C 102.882813 49.933594 103.921875 47.121094 106.003906 44.875 C 108.082031 42.632813 111.136719 41.511719 115.164063 41.511719 C 118.53125 41.511719 121.398438 42.570313 123.773438 44.683594 C 126.152344 46.800781 127.394531 49.867188 127.515625 53.890625 L 121.179688 53.890625 C 121.0625 51.613281 120.214844 49.996094 118.632813 49.035156 C 117.578125 48.402344 116.269531 48.085938 114.707031 48.085938 C 112.964844 48.085938 111.578125 48.496094 110.539063 49.320313 C 109.5 50.140625 108.980469 51.289063 108.980469 52.761719 C 108.980469 54.113281 109.492188 55.121094 110.519531 55.789063 C 111.175781 56.238281 112.570313 56.757813 114.707031 57.359375 L 120.242188 58.925781 C 122.667969 59.609375 124.488281 60.527344 125.699219 61.671875 C 127.578125 63.453125 128.519531 66.03125 128.519531 69.402344 C 128.519531 72.863281 127.40625 75.734375 125.175781 78.019531 C 122.949219 80.304688 119.800781 81.449219 115.734375 81.449219 C 111.582031 81.449219 108.316406 80.324219 105.9375 78.070313 C 103.558594 75.820313 102.367188 72.726563 102.367188 68.785156 "/>
<path style=" stroke:none;fill-rule:nonzero;fill:rgb(6.298828%,27.49939%,48.199463%);fill-opacity:1;" d="M 141.726563 66.167969 L 149.804688 66.167969 L 145.820313 51.269531 Z M 142.160156 42.617188 L 149.617188 42.617188 L 160.773438 80.472656 L 153.628906 80.472656 L 151.546875 72.691406 L 139.933594 72.691406 L 137.796875 80.472656 L 130.898438 80.472656 "/>
<path style=" stroke:none;fill-rule:nonzero;fill:rgb(6.298828%,27.49939%,48.199463%);fill-opacity:1;" d="M 164.789063 42.617188 L 171.382813 42.617188 L 171.382813 73.667969 L 187.128906 73.667969 L 187.128906 80.472656 L 164.789063 80.472656 "/>
<path style=" stroke:none;fill-rule:nonzero;fill:rgb(6.298828%,27.49939%,48.199463%);fill-opacity:1;" d="M 214.882813 49.320313 L 198.191406 49.320313 L 198.191406 57.359375 L 213.515625 57.359375 L 213.515625 63.933594 L 198.191406 63.933594 L 198.191406 73.667969 L 215.652344 73.667969 L 215.652344 80.472656 L 191.753906 80.472656 L 191.753906 42.617188 L 214.882813 42.617188 "/>
<path style=" stroke:none;fill-rule:nonzero;fill:rgb(6.298828%,27.49939%,48.199463%);fill-opacity:1;" d="M 225.539063 68.785156 C 225.746094 70.515625 226.144531 71.808594 226.742188 72.664063 C 227.835938 74.222656 229.707031 75.003906 232.359375 75.003906 C 233.945313 75.003906 235.234375 74.796875 236.226563 74.386719 C 238.105469 73.597656 239.042969 72.136719 239.042969 69.996094 C 239.042969 68.746094 238.582031 67.777344 237.664063 67.09375 C 236.742188 66.425781 235.28125 65.835938 233.285156 65.320313 L 229.867188 64.421875 C 226.511719 63.53125 224.207031 62.5625 222.953125 61.519531 C 220.824219 59.773438 219.761719 57.042969 219.761719 53.324219 C 219.761719 49.933594 220.800781 47.121094 222.882813 44.875 C 224.960938 42.632813 228.015625 41.511719 232.046875 41.511719 C 235.410156 41.511719 238.28125 42.570313 240.65625 44.683594 C 243.03125 46.800781 244.277344 49.867188 244.394531 53.890625 L 238.058594 53.890625 C 237.941406 51.613281 237.09375 49.996094 235.515625 49.035156 C 234.460938 48.402344 233.152344 48.085938 231.589844 48.085938 C 229.847656 48.085938 228.460938 48.496094 227.417969 49.320313 C 226.382813 50.140625 225.863281 51.289063 225.863281 52.761719 C 225.863281 54.113281 226.371094 55.121094 227.398438 55.789063 C 228.054688 56.238281 229.453125 56.757813 231.589844 57.359375 L 237.121094 58.925781 C 239.550781 59.609375 241.367188 60.527344 242.578125 61.671875 C 244.460938 63.453125 245.398438 66.03125 245.398438 69.402344 C 245.398438 72.863281 244.285156 75.734375 242.058594 78.019531 C 239.828125 80.304688 236.683594 81.449219 232.617188 81.449219 C 228.464844 81.449219 225.195313 80.324219 222.816406 78.070313 C 220.4375 75.820313 219.25 72.726563 219.25 68.785156 "/>
<path style=" stroke:none;fill-rule:nonzero;fill:rgb(6.298828%,27.49939%,48.199463%);fill-opacity:1;" d="M 249.484375 80.472656 L 256.035156 80.472656 L 256.035156 42.617188 L 249.484375 42.617188 Z M 249.484375 80.472656 "/>
<path style=" stroke:none;fill-rule:nonzero;fill:rgb(6.298828%,27.49939%,48.199463%);fill-opacity:1;" d="M 270.78125 66.167969 L 278.859375 66.167969 L 274.878906 51.269531 Z M 271.21875 42.617188 L 278.675781 42.617188 L 289.832031 80.472656 L 282.6875 80.472656 L 280.605469 72.691406 L 268.988281 72.691406 L 266.851563 80.472656 L 259.957031 80.472656 "/>
<path style=" stroke:none;fill-rule:nonzero;fill:rgb(6.298828%,27.49939%,48.199463%);fill-opacity:1;" d="M 293.738281 42.617188 L 300.648438 42.617188 L 313.167969 69.011719 L 313.167969 42.617188 L 319.308594 42.617188 L 319.308594 80.472656 L 312.71875 80.472656 L 299.878906 53.613281 L 299.878906 80.472656 L 293.738281 80.472656 "/>
<path style=" stroke:none;fill-rule:nonzero;fill:rgb(6.298828%,27.49939%,48.199463%);fill-opacity:1;" d="M 334.078125 66.167969 L 342.160156 66.167969 L 338.175781 51.269531 Z M 334.515625 42.617188 L 341.972656 42.617188 L 353.128906 80.472656 L 345.984375 80.472656 L 343.902344 72.691406 L 332.289063 72.691406 L 330.148438 80.472656 L 323.253906 80.472656 "/>
<path style=" stroke:none;fill-rule:nonzero;fill:rgb(98.799133%,79.598999%,33.299255%);fill-opacity:1;" d="M 79.785156 69.988281 C 79.785156 69.988281 77.582031 72.394531 77.378906 72.394531 L 70.5 72.394531 C 69.632813 72.394531 67.09375 72.261719 65.421875 71.65625 C 63.753906 71.058594 59.347656 67.515625 58.679688 66.714844 C 58.007813 65.914063 57.542969 65.511719 57.542969 64.042969 C 57.542969 62.574219 57.609375 60.570313 57.542969 59.769531 C 57.476563 58.96875 56.539063 57.230469 56.273438 56.097656 C 56.007813 54.960938 54.9375 50.785156 54.9375 50.785156 L 54.871094 50.085938 L 54.871094 49.082031 C 54.871094 49.082031 54.9375 48.480469 54.871094 48.28125 C 54.804688 48.082031 54.667969 47.347656 54.667969 47.347656 C 54.667969 47.347656 54.070313 42.871094 54.003906 42.605469 C 53.9375 42.335938 56.605469 28.710938 56.605469 28.710938 L 58.210938 28.445313 L 64.019531 28.644531 L 73.707031 28.914063 C 73.707031 28.914063 79.046875 29.046875 79.453125 29.582031 C 79.851563 30.113281 84.929688 35.65625 84.929688 36.660156 C 84.929688 37.664063 86.464844 41.132813 86.796875 41.46875 C 87.132813 41.800781 89.136719 44.472656 89.136719 45.476563 C 89.136719 46.476563 89.535156 49.550781 89.535156 49.550781 L 88.46875 53.425781 C 88.46875 53.425781 87.730469 54.492188 87.265625 55.160156 C 86.796875 55.832031 85.128906 58.367188 84.660156 59.300781 C 84.191406 60.238281 82.1875 62.105469 82.054688 62.710938 C 81.921875 63.308594 81.519531 65.648438 81.1875 65.980469 C 80.851563 66.316406 80.386719 66.851563 80.316406 67.316406 C 80.25 67.785156 79.785156 69.988281 79.785156 69.988281 "/>
<path style=" stroke:none;fill-rule:nonzero;fill:rgb(6.298828%,27.49939%,48.199463%);fill-opacity:1;" d="M 86.726563 45.832031 C 86.976563 45.9375 87.589844 46.203125 87.710938 46.449219 C 87.863281 46.765625 87.675781 48.523438 87.675781 48.976563 C 87.675781 49.277344 87.53125 50.433594 87.351563 50.433594 C 87.164063 50.464844 86.707031 50.402344 86.539063 49.546875 C 86.535156 48.84375 86.960938 47.269531 85.925781 47.292969 C 85.722656 47.292969 85.320313 47.3125 85.183594 47.453125 C 84.789063 47.84375 85.054688 50.199219 85.085938 50.851563 C 85.09375 50.976563 85.28125 51.921875 85.121094 51.921875 C 84.859375 52.570313 83.761719 53.40625 83.761719 53.476563 C 83.695313 53.476563 83.175781 53.542969 84.035156 51.636719 C 84.144531 51.394531 84.203125 50.535156 84.101563 50.308594 C 84.007813 50.113281 83.660156 49.789063 83.628906 49.589844 C 83.519531 48.949219 84.066406 48.152344 84.066406 47.546875 C 84.125 47.546875 84.285156 47.359375 84.253906 47.167969 C 84.796875 46.925781 85.214844 46.5 85.875 46.5 L 85.875 46.40625 C 85.800781 46.132813 86.574219 45.902344 86.726563 45.832031 "/>
<path style=" stroke:none;fill-rule:nonzero;fill:rgb(6.298828%,27.49939%,48.199463%);fill-opacity:1;" d="M 56.367188 37.664063 C 56.527344 37.703125 56.703125 37.765625 56.808594 37.875 C 57.015625 38.273438 57.222656 38.675781 57.433594 39.074219 C 57.652344 39.347656 57.871094 39.621094 58.089844 39.894531 C 58.164063 40.046875 58.207031 40.746094 58.191406 40.933594 C 58.136719 41.464844 57.621094 41.3125 57.503906 41.945313 C 57.289063 43.078125 57.902344 43.441406 58.652344 43.929688 C 58.855469 44.085938 59.0625 44.246094 59.265625 44.402344 C 59.78125 44.644531 60.480469 44.707031 61.125 44.707031 C 61.40625 44.582031 62.4375 44.359375 62.835938 44.898438 C 62.835938 44.933594 64.261719 46.691406 64.050781 47.535156 C 63.933594 48.007813 63.410156 48.324219 63.410156 48.992188 C 63.34375 48.992188 63.09375 50.777344 62.410156 50.921875 C 62.308594 50.941406 62.121094 50.960938 61.789063 50.226563 C 61.667969 49.910156 61.410156 49.632813 61.335938 49.269531 L 61.335938 48.523438 C 59.773438 48.4375 59.546875 47.941406 59.308594 47.894531 C 58.226563 47.675781 58.089844 48.648438 58.117188 48.648438 C 57.566406 49.703125 57.070313 48.066406 56.765625 48.042969 C 56.207031 47.996094 55.367188 47.976563 56.367188 47.089844 C 56.226563 46.785156 55.808594 46.03125 55.667969 45.726563 C 55.515625 45.332031 55.355469 44.609375 55.386719 44.148438 C 55.429688 43.339844 55.699219 42.703125 55.699219 41.851563 C 56.800781 40.808594 55.691406 38.914063 56.367188 37.664063 "/>
<path style=" stroke:none;fill-rule:nonzero;fill:rgb(6.298828%,27.49939%,48.199463%);fill-opacity:1;" d="M 65.585938 45.011719 C 66.300781 45.03125 66.679688 45.417969 67.238281 45.511719 C 68.320313 45.53125 69.394531 45.550781 70.46875 45.5625 C 70.765625 45.429688 73.046875 45.167969 73.871094 45.484375 C 74.664063 45.789063 76.707031 47.304688 76.5 47.671875 C 76.363281 47.90625 76.058594 48.03125 75.816406 48.109375 C 75.65625 48.152344 75.53125 48.277344 75.488281 48.4375 C 75.46875 48.65625 75.523438 48.773438 75.59375 48.957031 C 76.476563 49.636719 75.964844 49.722656 75.964844 49.75 C 75.871094 49.75 75.175781 49.636719 75.082031 49.636719 C 74.878906 49.429688 74.542969 49.207031 74.382813 48.890625 C 74.179688 48.609375 73.960938 47.894531 73.375 48.230469 C 73.226563 48.359375 72.652344 49.277344 72.46875 49.277344 C 71.914063 49.398438 71.457031 48.976563 70.9375 48.9375 C 70.65625 48.910156 70.3125 48.910156 70.078125 49.023438 C 69.292969 49.402344 69.105469 48.980469 68.75 48.921875 C 68.527344 48.882813 67.808594 48.882813 67.628906 48.753906 C 67.503906 48.566406 67.664063 48.296875 67.261719 47.90625 C 67.292969 47.835938 66.84375 48.089844 66.609375 47.761719 C 66.425781 47.316406 66.027344 45.742188 65.332031 45.742188 C 65.332031 45.644531 64.976563 45.152344 65.585938 45.011719 "/>
<path style=" stroke:none;fill-rule:evenodd;fill:rgb(6.298828%,27.49939%,48.199463%);fill-opacity:1;" d="M 72.429688 66.757813 L 71.820313 67.199219 C 71.453125 67.496094 71.136719 67.953125 70.714844 68.160156 C 70.417969 68.304688 69.691406 68.523438 69.691406 68.582031 C 69.816406 68.582031 69.152344 68.683594 69.035156 68.714844 C 68.601563 68.8125 68.050781 68.816406 67.601563 68.734375 L 67.019531 68.621094 C 66.589844 68.421875 66.167969 68.097656 65.679688 67.96875 C 65.078125 67.808594 64.546875 67.777344 63.886719 67.820313 L 63.886719 67.726563 L 63.789063 67.726563 L 63.789063 67.628906 C 63.886719 67.601563 62.078125 67.183594 61.554688 66.628906 C 61.265625 66.320313 61.28125 65.867188 61.128906 65.476563 C 61.070313 65.320313 60.929688 65.164063 60.914063 64.960938 C 60.90625 64.839844 60.871094 64.734375 60.832031 64.632813 C 60.78125 64.488281 60.71875 64.351563 60.707031 64.1875 C 60.550781 63.660156 60.265625 63.320313 60.054688 62.832031 C 59.847656 62.351563 59.820313 61.402344 60.484375 61.265625 C 61.058594 61.144531 61.429688 61.710938 61.84375 61.917969 L 62.363281 62.109375 C 62.363281 62.433594 62.375 62.695313 62.265625 62.96875 C 62.265625 63 61.949219 63.035156 61.949219 63.070313 C 61.851563 63.042969 61.953125 63.648438 62.179688 63.839844 C 62.199219 63.851563 62.828125 63.832031 63.121094 63.839844 L 64.164063 63.960938 L 64.933594 64.238281 C 65.171875 64.257813 65.414063 64.179688 65.597656 64.109375 C 65.597656 63.871094 65.582031 63.578125 65.644531 63.359375 C 65.738281 63.027344 65.949219 62.710938 65.882813 62.300781 C 65.078125 62.300781 63.199219 62.007813 64.265625 60.871094 C 65.007813 60.890625 65.691406 61.070313 66.359375 61.105469 L 67.300781 61.039063 L 68.550781 61.238281 L 69.871094 61.203125 C 70.054688 61.167969 70.441406 61.023438 70.640625 61.078125 C 71.144531 61.207031 71.464844 61.636719 71.808594 61.992188 C 72.242188 62.4375 72.710938 62.84375 72.960938 63.378906 C 73.128906 63.746094 73.160156 64.1875 73.140625 64.632813 C 73.121094 65.144531 73.035156 65.664063 73.023438 66.109375 C 72.929688 66.109375 72.5625 66.601563 72.429688 66.757813 M 82.445313 48.695313 C 82.730469 47.976563 83.339844 46.582031 83.425781 46.515625 C 83.773438 46.230469 84.042969 45.671875 84.445313 45.355469 C 85.085938 44.769531 85.933594 44.523438 86.066406 44.40625 C 86.066406 44.367188 86.921875 44.335938 87.101563 44.367188 C 87.753906 44.460938 89.03125 46.265625 89.144531 46.890625 C 89.226563 47.402344 89.144531 48.144531 89.019531 48.695313 C 88.988281 48.832031 88.953125 48.960938 88.917969 49.070313 C 89.085938 49.070313 89.167969 49.503906 89.203125 49.644531 C 89.054688 49.644531 89.046875 49.484375 89.015625 49.355469 C 88.726563 49.355469 88.660156 50.078125 88.609375 50.300781 C 88.488281 50.777344 88.214844 51.0625 87.976563 51.457031 L 87.574219 52.519531 C 87.003906 53.40625 86.035156 54.035156 85.425781 54.898438 C 85.160156 55.269531 84.972656 56.273438 84.734375 56.730469 C 84.507813 57.167969 84.066406 57.398438 83.96875 57.921875 L 83.398438 58.113281 C 83.398438 57.976563 83.28125 57.953125 83.210938 57.851563 C 82.855469 57.347656 82.402344 57.53125 81.875 57.636719 L 81.875 59.445313 C 81.464844 59.445313 81.367188 60.214844 81.269531 60.480469 C 81.082031 61 80.707031 61.46875 80.570313 62.019531 C 80.375 62.777344 80.359375 63.71875 80.390625 64.632813 C 80.390625 64.667969 80.390625 64.703125 80.394531 64.734375 C 80.410156 65.210938 80.429688 65.675781 80.445313 66.109375 L 80.066406 66.203125 C 80.066406 67.363281 79.097656 68.199219 78.253906 68.867188 C 78.292969 68.996094 78.035156 69.25 77.878906 69.25 C 77.492188 69.25 77.046875 69.707031 76.703125 69.851563 L 74.925781 70.484375 C 74.128906 70.484375 73.234375 70.476563 73.035156 69.625 C 72.992188 69.441406 72.988281 69.09375 73.109375 68.9375 L 73.347656 68.738281 C 73.710938 68.511719 80.332031 64.871094 76.734375 64.871094 C 76.734375 64.902344 76.671875 64.964844 76.640625 64.964844 C 76.640625 65.035156 76.710938 65.171875 76.566406 65.355469 C 76.386719 65.589844 76.058594 65.679688 75.691406 65.671875 C 75.320313 65.667969 75.203125 65.300781 74.925781 65.0625 C 74.90625 65.0625 74.707031 64.867188 74.535156 64.632813 C 74.445313 64.515625 74.367188 64.386719 74.316406 64.269531 L 74.097656 63.273438 C 73.984375 62.902344 73.722656 62.570313 73.722656 62.109375 C 73.722656 60.558594 75.03125 59.855469 74.757813 58.152344 C 74.730469 58.058594 74.660156 57.613281 74.640625 57.515625 C 74.640625 57.386719 73.847656 56.609375 73.5625 56.445313 C 73.296875 56.382813 72.609375 56.144531 72.410156 55.96875 L 71.472656 55.363281 C 71.066406 55.03125 70.789063 54.503906 70.339844 54.238281 C 70.039063 54.0625 69.898438 53.980469 69.574219 53.808594 C 69.542969 53.808594 69.246094 53.925781 69.214844 53.925781 C 69.214844 55.132813 69.945313 55.265625 70.683594 55.890625 L 71.457031 56.828125 C 71.867188 57.292969 72.527344 57.796875 72.648438 58.417969 C 72.933594 58.917969 72.578125 59.445313 72.546875 59.445313 C 72.546875 59.570313 72.570313 59.53125 72.449219 59.542969 C 72.070313 59.566406 70.800781 59.921875 70.675781 60.246094 C 70.695313 60.328125 70.320313 60.410156 70.34375 60.492188 C 69.480469 60.480469 69.019531 60.464844 68.160156 60.449219 C 67.8125 60.441406 66.261719 59.976563 65.976563 59.828125 C 66.492188 58.734375 68.757813 57.539063 68.074219 57.066406 L 66.074219 57.066406 C 66.074219 57.097656 65.457031 57.347656 65.121094 57.539063 C 64.828125 57.539063 64.421875 57.546875 64.167969 57.445313 C 63.824219 57.304688 63.257813 56.683594 62.832031 56.796875 C 62.769531 56.796875 62.613281 56.558594 62.648438 56.402344 C 62.476563 56.402344 62.316406 56.261719 62.171875 56.207031 C 61.917969 56.179688 61.410156 56.074219 61.109375 56.304688 C 61.109375 56.339844 61.953125 58.214844 60.640625 58.324219 C 60.242188 58.359375 59.609375 58.042969 59.589844 57.679688 C 59.542969 56.890625 59.851563 55.847656 60.496094 55.296875 C 60.695313 55.125 60.976563 55.054688 61.101563 54.808594 C 61.246094 54.503906 61.34375 54.085938 61.21875 53.640625 C 60.894531 52.945313 60.046875 53.355469 59.980469 53.355469 C 59.980469 53.542969 57.835938 54.648438 57.507813 54.875 C 57.109375 54.875 56.527344 54.917969 56.230469 54.699219 L 56.074219 54.464844 L 56.003906 53.652344 C 55.921875 53.164063 55.789063 52.734375 55.75 52.210938 C 55.707031 51.679688 55.667969 50.976563 55.507813 50.496094 C 55.507813 50.53125 55.015625 50.152344 54.9375 50.785156 C 54.9375 50.671875 54.886719 50.867188 54.886719 50.882813 C 54.765625 51.617188 54.878906 52.550781 54.917969 53.257813 L 54.917969 54.289063 C 54.933594 54.949219 55.265625 55.007813 55.332031 55.265625 C 55.445313 55.699219 55.597656 57.808594 55.785156 58.367188 C 55.867188 58.539063 56.167969 59.878906 56.234375 60.378906 L 56.5625 60.996094 L 56.703125 62.101563 C 56.761719 62.363281 56.859375 62.683594 56.785156 63.003906 C 56.683594 63.394531 55.382813 64.050781 55.015625 64.226563 C 54.804688 64.320313 54.558594 64.484375 54.296875 64.632813 L 54.28125 64.640625 L 54.28125 64.644531 C 53.996094 64.808594 53.6875 64.960938 53.390625 65 C 53.367188 65.117188 53.464844 65.421875 53.429688 65.421875 C 53.429688 65.632813 53.273438 65.496094 53.226563 65.746094 C 53.167969 66.042969 53.375 66.308594 53.371094 66.574219 C 53.367188 66.835938 53.195313 67.046875 53.222656 67.328125 C 53.351563 68.496094 54.171875 68.472656 54.605469 68.652344 C 54.960938 68.796875 55.617188 68.550781 55.917969 68.769531 L 56.335938 69.28125 C 56.777344 69.765625 57.148438 70.375 57.699219 70.628906 C 57.699219 70.695313 57.984375 70.898438 57.984375 70.960938 C 58.015625 70.960938 58.054688 71.035156 58.042969 71.074219 C 57.910156 71.53125 58.085938 72.101563 58.34375 72.597656 L 58.34375 72.605469 C 58.464844 72.839844 58.609375 73.066406 58.742188 73.246094 C 58.589844 73.246094 58.535156 73.496094 58.527344 73.628906 C 58.515625 73.910156 58.652344 74.179688 58.707031 74.394531 C 58.902344 75.21875 58.910156 76.332031 59.617188 76.847656 C 60.234375 77.296875 61.636719 77.007813 62.433594 76.785156 C 62.734375 76.699219 62.992188 76.691406 63.367188 76.726563 C 64.191406 76.800781 65.210938 77.617188 65.289063 77.632813 C 65.625 78.152344 67.191406 78.382813 67.257813 78.449219 C 67.460938 78.566406 67.605469 78.789063 67.804688 78.90625 C 68.105469 79.136719 69.042969 79.75 69.253906 79.859375 C 69.507813 80.050781 69.929688 80.375 70.230469 80.46875 C 70.542969 80.5625 71.660156 80.570313 71.992188 80.484375 C 72.46875 80.363281 72.898438 80.046875 73.425781 80 C 73.863281 79.957031 74.542969 80.09375 74.925781 79.941406 C 75.410156 79.742188 75.769531 79.269531 76.277344 79.113281 C 76.574219 79.035156 76.789063 79.101563 77.082031 79.027344 C 77.363281 78.816406 77.71875 78.464844 78 78.257813 C 78.566406 77.980469 79.222656 77.898438 79.75 77.582031 C 80.140625 77.34375 80.417969 76.917969 80.789063 76.652344 L 81.644531 76.144531 C 82.25 75.675781 82.878906 75.066406 83.347656 74.445313 C 83.539063 74.183594 83.972656 73.417969 84.339844 72.605469 L 84.34375 72.605469 C 84.761719 71.671875 85.09375 70.679688 84.875 70.320313 C 84.703125 70.035156 84.269531 70.097656 83.980469 69.980469 C 83.625 69.828125 83.183594 69.628906 82.886719 69.367188 L 82.332031 68.894531 L 81.527344 68.6875 C 80.839844 68.445313 80.617188 67.664063 80.730469 66.964844 C 81.078125 66.964844 81.449219 66.804688 81.664063 66.566406 C 81.9375 66.265625 82.277344 66.007813 82.378906 65.613281 C 82.421875 65.335938 82.460938 65.058594 82.503906 64.78125 C 82.519531 64.699219 82.546875 64.566406 82.585938 64.433594 C 82.820313 63.695313 83.097656 62.910156 83.449219 62.230469 C 83.644531 61.847656 83.941406 61.207031 84.308594 60.957031 C 84.621094 60.738281 84.984375 60.628906 85.273438 60.359375 C 85.648438 60.003906 85.773438 59.628906 86.054688 59.246094 C 86.347656 58.832031 87.027344 58.441406 87.289063 58.007813 C 87.570313 57.539063 87.15625 57.078125 87.253906 56.5 C 87.296875 56.214844 87.644531 56.058594 87.742188 55.808594 C 87.824219 55.480469 87.742188 55.128906 87.824219 54.804688 C 89.132813 54.027344 89.515625 54.101563 89.296875 52.496094 C 89.527344 52.496094 89.886719 51.964844 89.910156 51.730469 C 89.976563 51.089844 90 50.550781 90.15625 50.023438 L 90.246094 49.003906 C 90.3125 48.882813 90.417969 48.789063 90.523438 48.695313 L 90.515625 48.695313 L 90.523438 48.695313 C 90.546875 48.671875 90.574219 48.644531 90.601563 48.621094 L 90.621094 48.601563 L 90.617188 48.601563 C 90.683594 48.539063 90.742188 48.472656 90.785156 48.394531 C 90.804688 48.089844 90.796875 47.789063 90.820313 47.484375 C 90.933594 47.222656 91.058594 46.972656 91.171875 46.707031 C 91.285156 46.292969 91.140625 45.746094 91.304688 45.351563 C 91.402344 45.101563 91.570313 44.769531 91.625 44.476563 C 91.691406 44.128906 91.617188 43.296875 91.476563 42.980469 C 91.371094 42.75 91.160156 42.566406 91.109375 42.289063 L 91.109375 41.074219 C 90.898438 41.074219 90.742188 40.046875 90.6875 39.78125 C 90.585938 39.574219 90.339844 38.007813 90.300781 37.386719 C 90.148438 36.859375 89.722656 36.3125 89.585938 35.765625 C 89.449219 35.222656 89.585938 34.632813 89.394531 33.746094 C 89.132813 32.980469 88.441406 32.105469 88.351563 31.878906 C 88.113281 31.296875 87.703125 30.851563 87.417969 30.292969 C 87.285156 30.039063 86.957031 28.96875 86.902344 28.707031 C 86.644531 28.390625 85.980469 27.207031 85.894531 27.027344 C 85.527344 26.632813 84.828125 26.664063 84.570313 26.183594 C 84.4375 25.941406 84.453125 25.515625 84.375 25.210938 C 84.253906 25.027344 84.007813 24.78125 83.890625 24.597656 C 83.851563 24.339844 83.894531 24.011719 83.855469 23.753906 C 83.71875 23.316406 82.972656 22.671875 82.59375 22.363281 C 82.480469 22.265625 80.726563 22.03125 80.257813 21.5625 L 80.257813 21.46875 C 79.363281 21.355469 77.769531 20.160156 77.132813 20.089844 C 76.796875 20.050781 76.3125 20.160156 75.832031 20.117188 C 75.417969 20.085938 74.886719 19.285156 74.371094 19.320313 C 73.5625 19.285156 72.058594 19.128906 71.972656 18.992188 C 71.972656 18.863281 71.890625 18.894531 71.785156 18.902344 C 71.25 18.914063 71.253906 18.699219 70.871094 18.527344 C 70.609375 18.410156 69.453125 18.480469 69.515625 18.574219 C 69.515625 18.605469 68.460938 18.75 68.074219 18.898438 C 67.46875 18.898438 66.507813 18.664063 65.976563 18.898438 C 65.546875 18.898438 64.726563 18.710938 64.359375 18.898438 C 63.925781 18.898438 63.65625 19.132813 63.308594 19.273438 C 62.835938 19.46875 62.363281 19.660156 61.890625 19.855469 C 61.472656 20.113281 61.214844 20.5 60.875 20.835938 C 60.203125 21.480469 59.605469 22.128906 58.933594 22.800781 L 58.269531 22.703125 L 58.269531 22.800781 C 58.085938 22.800781 57.933594 23.222656 57.765625 23.332031 C 57.425781 23.546875 56.585938 23.820313 56.355469 24.109375 C 55.691406 24.921875 55.535156 26.171875 54.808594 26.957031 C 54.617188 27.15625 54.367188 27.152344 54.121094 27.265625 C 53.824219 27.402344 53.464844 27.796875 53.304688 28.082031 C 53.078125 28.492188 53.109375 29.132813 53.128906 29.652344 C 53.003906 29.683594 52.796875 30.492188 52.820313 30.871094 C 52.863281 31.035156 53.035156 31.191406 53.066406 31.375 L 53.210938 33.058594 C 53.320313 33.296875 53.417969 35.964844 52.839844 36.859375 C 52.707031 37.058594 52.65625 37.292969 52.460938 37.457031 L 52.460938 37.554688 L 51.984375 37.457031 L 51.984375 37.554688 C 51.796875 37.554688 51.328125 38.558594 51.304688 38.796875 L 51.324219 39.4375 L 51.035156 40.21875 C 50.882813 40.21875 51.097656 40.679688 51.128906 40.789063 C 50.992188 40.789063 50.746094 40.917969 50.65625 40.980469 C 50.210938 40.980469 50.949219 41.945313 51.035156 42.027344 C 51.1875 42.027344 51.171875 42.390625 51.214844 42.503906 C 51.425781 43.117188 51.707031 43.214844 52.066406 43.65625 C 52.320313 43.964844 52.535156 44.335938 52.796875 44.648438 L 53.605469 45.453125 L 54.140625 46.363281 C 54.328125 47.785156 54.808594 47.242188 54.875 47.242188 C 54.875 46.015625 54.652344 45.101563 54.695313 43.855469 C 54.722656 42.867188 54.839844 41.945313 55.054688 41.152344 C 55.289063 41.089844 55.199219 39.78125 55.234375 39.78125 C 55.339844 39.496094 54.726563 35.222656 55.882813 33.472656 C 56.425781 32.644531 57.109375 31.859375 57.792969 31.128906 C 57.996094 30.910156 59.101563 30.0625 59.378906 30.195313 C 59.855469 30.410156 59.792969 30.382813 59.847656 30.949219 C 59.691406 31.320313 59.042969 32.285156 59.054688 32.644531 C 59.066406 32.949219 59.492188 33.171875 59.59375 33.402344 C 60.453125 34.601563 63.019531 33.730469 63.019531 33.761719 C 63.539063 33.761719 64.519531 33.328125 64.863281 32.972656 C 64.949219 32.800781 65.507813 32.207031 66.085938 32.207031 C 66.792969 32.207031 67.019531 32.941406 67.273438 33.183594 C 68 33.886719 69.289063 34.410156 70.351563 34.339844 C 70.574219 34.324219 71.242188 34.371094 71.242188 34.339844 C 71.679688 34.480469 72.167969 34.253906 72.167969 34.222656 C 72.199219 34.222656 73.269531 34.179688 73.785156 32.890625 C 73.785156 32.691406 73.847656 32.429688 73.964844 32.304688 C 74.246094 32 75 32.203125 75.339844 32.007813 C 75.945313 31.65625 76.097656 30.6875 76.839844 30.59375 C 77.382813 30.523438 78.578125 31.039063 77.878906 32.222656 C 77.898438 33.175781 79.253906 33.382813 79.742188 33.953125 C 79.742188 34.429688 80.050781 34.734375 80.066406 35.269531 C 80.207031 35.269531 80.457031 35.835938 80.457031 36.210938 C 80.441406 36.722656 80.175781 37.03125 80.078125 37.460938 C 79.8125 38.582031 79.027344 39.410156 78.785156 40.511719 C 78.640625 41.148438 78.339844 42.140625 78.351563 42.757813 C 78.359375 43.203125 78.6875 43.570313 78.871094 43.957031 C 79.109375 44.464844 79.464844 44.246094 79.816406 44.566406 C 80.1875 45.015625 80.507813 45.835938 80.878906 46.285156 C 81.148438 47.40625 81.300781 48.207031 81.46875 48.695313 C 81.664063 49.265625 81.875 49.402344 82.304688 49.105469 C 82.304688 49.074219 82.359375 48.914063 82.445313 48.695313 "/>
</g>
</svg>
